<svg width="19" height="19" viewBox="0 0 19 19" fill="none" xmlns="http://www.w3.org/2000/svg">
<path d="M14.3371 7.67307C14.3375 7.78579 14.3126 7.89716 14.2643 7.999C14.216 8.10084 14.1454 8.19056 14.0579 8.26157L9.53039 11.9057C9.39537 12.0167 9.22601 12.0774 9.05123 12.0774C8.87645 12.0774 8.70709 12.0167 8.57207 11.9057L4.04457 8.13331C3.89047 8.00524 3.79356 7.82122 3.77517 7.62171C3.75677 7.42221 3.81839 7.22357 3.94647 7.06949C4.07455 6.91541 4.25861 6.81852 4.45814 6.80012C4.65767 6.78173 4.85634 6.84334 5.01043 6.97141L9.055 10.3439L13.0996 7.08458C13.2103 6.99232 13.3452 6.93371 13.4882 6.91569C13.6313 6.89768 13.7765 6.921 13.9067 6.98291C14.0368 7.04482 14.1466 7.14273 14.2228 7.26503C14.2991 7.38734 14.3388 7.52894 14.3371 7.67307Z" fill="#1F4AA8"/>
</svg>
